<svg xmlns="http://www.w3.org/2000/svg" viewBox="0 0 64 64">
  <g stroke="#1b262c" stroke-width="3" stroke-linejoin="round" stroke-linecap="round">
    <path d="M19.5 42 Q11.5 51 19.5 62.5 Q27.5 51 19.5 42 Z" fill="#62d6f5"/>
    <path d="M44.5 42 Q36.5 51 44.5 62.5 Q52.5 51 44.5 42 Z" fill="#62d6f5"/>
    <rect x="23.5" y="10" width="17" height="26" rx="3" fill="#3d4c54"/>
    <rect x="11.5" y="3.5" width="16" height="33" rx="8" fill="#b9c3c8"/>
    <rect x="36.5" y="3.5" width="16" height="33" rx="8" fill="#b9c3c8"/>
    <rect x="11.5" y="17" width="16" height="6.5" fill="#ff7b22"/>
    <rect x="36.5" y="17" width="16" height="6.5" fill="#ff7b22"/>
    <path d="M14.5 36.5 H24.5 L22.5 43 H16.5 Z" fill="#2a3439"/>
    <path d="M39.5 36.5 H49.5 L47.5 43 H41.5 Z" fill="#2a3439"/>
  </g>
  <path d="M33.6 14 L28 23.5 H31.6 L30.2 31 L36 21.2 H32.4 L33.8 14 Z" fill="#ffd23f" stroke="#1b262c" stroke-width="1.4" stroke-linejoin="round"/>
  <path d="M19.5 47.5 Q15.8 52.5 19.5 58.5 Q23.2 52.5 19.5 47.5 Z M44.5 47.5 Q40.8 52.5 44.5 58.5 Q48.2 52.5 44.5 47.5 Z" fill="#e8fbff"/>
  <path d="M16 9 V14 M41 9 V14" fill="none" stroke="#e3e9ec" stroke-width="2.4" stroke-linecap="round"/>
</svg>
